<?xml version="1.0" standalone="no"?>
<!DOCTYPE svg PUBLIC "-//W3C//DTD SVG 20010904//EN"
 "http://www.w3.org/TR/2001/REC-SVG-20010904/DTD/svg10.dtd">
<svg version="1.0" xmlns="http://www.w3.org/2000/svg"
 width="512.000000pt" height="512.000000pt" viewBox="0 0 512.000000 512.000000"
 preserveAspectRatio="xMidYMid meet">
<metadata>
Created by potrace 1.14, written by Peter Selinger 2001-2017
</metadata>
<g transform="translate(0.000000,512.000000) scale(0.100000,-0.100000)"
fill="#000000" stroke="none">
<path d="M677 5099 c-56 -30 -77 -81 -77 -191 l0 -88 -82 0 c-142 -1 -199 -13
-285 -62 -103 -58 -178 -155 -215 -283 -17 -57 -18 -174 -15 -2085 2 -1663 4
-2031 15 -2060 20 -52 62 -130 86 -159 69 -83 166 -142 261 -161 30 -5 660 -9
1604 -10 1433 0 1559 1 1615 17 156 44 272 160 320 322 13 46 16 145 16 746
l0 694 86 128 c47 70 92 143 99 161 13 30 29 46 20 19 -6 -18 -15 -93 -21
-173 -5 -56 -2 -80 11 -108 44 -92 170 -113 242 -40 25 24 41 79 48 154 8 96
39 248 71 353 56 180 226 476 345 598 160 165 218 234 247 291 104 211 28 462
-178 589 -28 17 -50 33 -50 35 0 2 50 91 112 197 151 261 162 287 162 412 1
112 -13 163 -72 253 -97 149 -283 224 -470 188 -53 -10 -134 -50 -187 -93 -63
-50 -86 -85 -318 -488 -47 -82 -100 -166 -116 -185 l-30 -35 -2 190 c-1 105
-3 199 -4 211 -9 84 -84 214 -157 275 -96 79 -189 109 -340 109 l-98 0 0 93
c0 84 -3 97 -27 134 -45 70 -123 91 -193 52 -63 -36 -74 -59 -78 -176 l-4
-103 -149 0 -149 0 0 91 c0 76 -4 98 -22 131 -41 72 -127 97 -199 56 -61 -34
-79 -77 -79 -188 l0 -90 -155 0 -155 0 0 90 c0 102 -14 146 -54 178 -36 28
-107 38 -149 21 -74 -30 -97 -78 -97 -199 l0 -90 -150 0 -150 0 0 90 c0 114
-25 170 -85 194 -76 31 -152 7 -191 -59 -21 -36 -24 -54 -24 -133 l0 -92 -155
0 -155 0 0 90 c0 141 -37 195 -143 206 -30 3 -53 -2 -80 -17z m4108 -1654 c21
-26 27 -47 28 -84 0 -57 -10 -76 -84 -152 -72 -73 -166 -181 -218 -251 -24
-32 -45 -58 -47 -58 -3 0 26 76 56 145 10 22 55 135 101 251 l84 212 27 -14
c15 -8 39 -30 53 -49z"/>
</g>
</svg>
